<?xml version="1.0" encoding="UTF-8"?>
<!--Generator: Apple Native CoreSVG 232.5-->
<!DOCTYPE svg
PUBLIC "-//W3C//DTD SVG 1.1//EN"
       "http://www.w3.org/Graphics/SVG/1.1/DTD/svg11.dtd">
<svg version="1.1" xmlns="http://www.w3.org/2000/svg" xmlns:xlink="http://www.w3.org/1999/xlink" width="29.657" height="29.1301">
 <g>
  <rect height="29.1301" opacity="0" width="29.657" x="0" y="0"/>
  <path d="M19.5465 6.11169L7.70569 6.11169C6.48499 6.11169 5.80139 6.77087 5.80139 8.0404L5.80139 21.8954C5.80139 23.1649 6.48499 23.8119 7.70569 23.8119L21.6095 23.8119C22.8302 23.8119 23.5016 23.1649 23.5016 21.8954L23.5016 10.162L25.4669 8.19306L25.4669 21.993C25.4669 24.5199 24.1852 25.7772 21.6339 25.7772L7.66907 25.7772C5.13 25.7772 3.83606 24.5199 3.83606 21.993L3.83606 7.93053C3.83606 5.41589 5.13 4.14635 7.66907 4.14635L21.5118 4.14635Z" fill="#ffffff"/>
  <path d="M12.1124 17.8671L14.4928 16.8295L25.8942 5.4403L24.2218 3.79235L12.8326 15.1815L11.734 17.4764C11.6364 17.684 11.8805 17.9647 12.1124 17.8671ZM26.7975 4.54919L27.6764 3.64587C28.0914 3.20641 28.0914 2.62048 27.6764 2.21764L27.3956 1.92468C27.0172 1.54626 26.4191 1.59509 26.0162 1.98571L25.1251 2.86462Z" fill="#ffffff"/>
 </g>
</svg>
